<svg width="20" height="20" viewBox="0 0 20 20" fill="none" xmlns="http://www.w3.org/2000/svg">
<g clip-path="url(#clip0_2_251)">
<path d="M13 9.99996C13 10.7956 12.684 11.5587 12.1213 12.1213C11.5587 12.6839 10.7957 13 10 13C9.20438 13 8.44131 12.6839 7.8787 12.1213C7.31609 11.5587 7.00002 10.7956 7.00002 9.99996C7.00002 9.82896 7.01802 9.66196 7.04902 9.49996H6.00002V13.497C6.00002 13.775 6.22502 14 6.50302 14H13.498C13.6313 13.9997 13.7589 13.9466 13.8531 13.8523C13.9472 13.758 14 13.6302 14 13.497V9.49996H12.951C12.982 9.66196 13 9.82896 13 9.99996ZM10 12C10.2627 11.9999 10.5229 11.9481 10.7655 11.8475C11.0082 11.7469 11.2287 11.5995 11.4144 11.4137C11.6002 11.2279 11.7475 11.0073 11.8479 10.7646C11.9484 10.5218 12.0001 10.2617 12 9.99896C12 9.73625 11.9481 9.47613 11.8476 9.23344C11.747 8.99076 11.5995 8.77026 11.4137 8.58454C11.2279 8.39883 11.0074 8.25152 10.7646 8.15105C10.5219 8.05058 10.2617 7.9989 9.99902 7.99896C9.46846 7.9991 8.95968 8.20999 8.5846 8.58525C8.20953 8.96051 7.99889 9.4694 7.99902 9.99996C7.99916 10.5305 8.21005 11.0393 8.58531 11.4144C8.96057 11.7895 9.46946 12.0001 10 12ZM12.4 7.89996H13.599C13.6787 7.89996 13.7551 7.86839 13.8115 7.81216C13.8679 7.75592 13.8998 7.67962 13.9 7.59996V6.40096C13.9 6.32113 13.8683 6.24457 13.8119 6.18812C13.7554 6.13168 13.6789 6.09996 13.599 6.09996H12.4C12.3202 6.09996 12.2436 6.13168 12.1872 6.18812C12.1307 6.24457 12.099 6.32113 12.099 6.40096V7.59996C12.1 7.76496 12.235 7.89996 12.4 7.89996ZM10 0.399963C7.45395 0.399963 5.01215 1.41139 3.2118 3.21174C1.41145 5.01209 0.400024 7.45389 0.400024 9.99996C0.400024 12.546 1.41145 14.9878 3.2118 16.7882C5.01215 18.5885 7.45395 19.6 10 19.6C11.2607 19.6 12.5091 19.3517 13.6738 18.8692C14.8385 18.3868 15.8968 17.6796 16.7882 16.7882C17.6797 15.8967 18.3868 14.8385 18.8693 13.6737C19.3517 12.509 19.6 11.2607 19.6 9.99996C19.6 8.73927 19.3517 7.49093 18.8693 6.3262C18.3868 5.16148 17.6797 4.10318 16.7882 3.21174C15.8968 2.3203 14.8385 1.61317 13.6738 1.13072C12.5091 0.648275 11.2607 0.399963 10 0.399963ZM15 13.889C15 14.5 14.5 15 13.889 15H6.11102C5.50002 15 5.00002 14.5 5.00002 13.889V6.11096C5.00002 5.49996 5.50002 4.99996 6.11102 4.99996H13.889C14.5 4.99996 15 5.49996 15 6.11096V13.889Z" fill="#3F3635"/>
</g>
<defs>
<clipPath id="clip0_2_251">
<rect width="20" height="20" fill="white"/>
</clipPath>
</defs>
</svg>
