<svg width="20" height="20" viewBox="0 0 20 20" fill="none" xmlns="http://www.w3.org/2000/svg">
<g clip-path="url(#clip0_2_253)">
<path d="M10 0.399963C4.69802 0.399963 0.400024 4.69796 0.400024 9.99996C0.400024 15.302 4.69802 19.6 10 19.6C15.302 19.6 19.6 15.302 19.6 9.99996C19.6 4.69796 15.302 0.399963 10 0.399963ZM13.692 11.231C13.692 11.231 14.541 12.069 14.75 12.458C14.756 12.466 14.759 12.474 14.761 12.478C14.846 12.621 14.866 12.732 14.824 12.815C14.754 12.953 14.514 13.021 14.432 13.027H12.932C12.828 13.027 12.61 13 12.346 12.818C12.143 12.676 11.943 12.443 11.748 12.216C11.457 11.878 11.205 11.586 10.951 11.586C10.9188 11.5859 10.8867 11.591 10.856 11.601C10.664 11.663 10.418 11.937 10.418 12.667C10.418 12.895 10.238 13.026 10.111 13.026H9.42402C9.19002 13.026 7.97102 12.944 6.89102 11.805C5.56902 10.41 4.37902 7.61196 4.36902 7.58596C4.29402 7.40496 4.44902 7.30796 4.61802 7.30796H6.13302C6.33502 7.30796 6.40102 7.43096 6.44702 7.53996C6.50102 7.66696 6.69902 8.17196 7.02402 8.73996C7.55102 9.66596 7.87402 10.042 8.13302 10.042C8.18159 10.0414 8.22929 10.029 8.27202 10.006C8.61002 9.81796 8.54702 8.61296 8.53202 8.36296C8.53202 8.31596 8.53102 7.82396 8.35802 7.58796C8.23402 7.41696 8.02302 7.35196 7.89502 7.32796C7.94683 7.25647 8.01509 7.19851 8.09402 7.15896C8.32602 7.04296 8.74403 7.02596 9.15903 7.02596H9.39003C9.84002 7.03196 9.95603 7.06096 10.119 7.10196C10.449 7.18096 10.456 7.39396 10.427 8.12296C10.418 8.32996 10.409 8.56396 10.409 8.83996C10.409 8.89996 10.406 8.96396 10.406 9.03196C10.396 9.40296 10.384 9.82396 10.646 9.99696C10.6802 10.0184 10.7197 10.0298 10.76 10.03C10.851 10.03 11.125 10.03 11.867 8.75696C12.0959 8.34722 12.2947 7.92144 12.462 7.48296C12.477 7.45696 12.521 7.37696 12.573 7.34596C12.6114 7.3264 12.654 7.31645 12.697 7.31696H14.478C14.672 7.31696 14.805 7.34596 14.83 7.42096C14.874 7.53996 14.822 7.90296 14.009 9.00396L13.646 9.48296C12.909 10.449 12.909 10.498 13.692 11.231Z" fill="#3F3635"/>
</g>
<defs>
<clipPath id="clip0_2_253">
<rect width="20" height="20" fill="white"/>
</clipPath>
</defs>
</svg>
